<?xml version="1.0" encoding="utf-8"?>
<!-- Generator: Adobe Illustrator 18.1.1, SVG Export Plug-In . SVG Version: 6.00 Build 0)  -->
<svg version="1.1" id="Layer_1" xmlns="http://www.w3.org/2000/svg" xmlns:xlink="http://www.w3.org/1999/xlink" x="0px" y="0px"
	 viewBox="0 0 408.324 408.32" enable-background="new 0 0 408.324 408.32" xml:space="preserve">
<g>
	<radialGradient id="SVGID_1_" cx="153.0625" cy="92.9658" r="322.6149" gradientUnits="userSpaceOnUse">
		<stop  offset="0" style="stop-color:#B64C26"/>
		<stop  offset="1" style="stop-color:#DA2F27"/>
	</radialGradient>
	<path fill="url(#SVGID_1_)" stroke="#000000" stroke-width="2.3618" stroke-miterlimit="10" d="M39.578,205.532
		c0,0-20.448-2.652-35.416,13.964c0,0,13.37-5.113,25.327,4.072c0,0-8.947,7.669,1.278,42.178c0,0,3.408-14.059,9.799-12.781
		c0,0,25.136,9.373,14.059,49.42c0,0,11.077-8.521,13.633,0c0,0-13.207,28.971,3.408,49.847c0,0,1.704-44.734,11.929-31.527
		c0,0,18.746,23.006,14.911,35.787c0,0,13.633-12.355,8.521-20.876c0,0,5.965-2.556,22.154,28.971c0,0,4.686-9.799,2.13-14.911
		c0,0,13.207,30.675,24.284,38.77c0,0-9.799-8.947-5.965-26.84c0,0,29.397,12.355,17.468,34.509c0,0,15.337-10.651,10.651-28.119
		c0,0,2.982-8.947,17.042,6.391c0,0-1.022-10.676,9.203-3.433c0,0,1.42,23.006,22.722,33.657c0,0-7.671-9.789-4.686-25.349
		c0,0,7.669,8.947,42.178-1.278c0,0-14.059-3.408-12.781-9.799c0,0,9.373-25.136,49.42-14.059c0,0-8.521-11.077,0-13.633
		c0,0,28.971,13.207,49.847-3.408c0,0-44.734-1.704-31.527-11.929c0,0,23.006-18.746,35.787-14.911c0,0-12.355-13.633-20.876-8.521
		c0,0-2.556-5.965,28.971-22.154c0,0-9.799-4.686-14.911-2.13c0,0,30.675-13.207,38.77-24.284c0,0-8.947,9.799-26.84,5.965
		c0,0,12.355-29.397,34.509-17.468c0,0-10.651-15.337-28.119-10.651c0,0-8.947-2.982,6.391-17.042c0,0-13.583-0.944-6.34-11.169
		c0,0,22.687,2.652,37.654-13.964c0,0-13.37,5.113-25.327-4.072c0,0,8.947-7.669-1.278-42.178c0,0-3.408,14.059-9.799,12.781
		c0,0-25.136-9.373-14.059-49.421c0,0-11.077,8.521-13.633,0c0,0,13.207-28.971-3.408-49.847c0,0-1.704,44.734-11.929,31.527
		c0,0-18.746-23.006-14.911-35.787c0,0-13.633,12.355-8.521,20.876c0,0-5.965,2.556-22.154-28.971c0,0-4.686,9.799-2.13,14.911
		c0,0-13.207-30.675-24.284-38.77c0,0,9.799,8.947,5.965,26.84c0,0-29.397-12.355-17.468-34.509c0,0-15.337,10.651-10.651,28.119
		c0,0-2.982,8.947-17.042-6.391c0,0,1.022,10.676-9.203,3.433c0,0-1.42-23.006-22.722-33.657c0,0,7.671,9.789,4.686,25.349
		c0,0-7.669-8.947-42.178,1.278c0,0,14.059,3.408,12.781,9.799c0,0-9.373,25.136-49.421,14.059c0,0,8.521,11.077,0,13.633
		c0,0-28.971-13.207-49.847,3.408c0,0,44.734,1.704,31.527,11.929c0,0-23.006,18.746-35.787,14.911c0,0,12.355,13.633,20.876,8.521
		c0,0,2.556,5.965-28.971,22.154c0,0,9.799,4.686,14.911,2.13c0,0-30.675,13.207-38.77,24.284c0,0,8.947-9.799,26.84-5.965
		c0,0-12.355,29.397-34.509,17.468c0,0,10.651,15.337,28.119,10.651c0,0,8.947,2.982-6.391,17.042
		C35.476,194.363,46.82,195.307,39.578,205.532z"/>
	<radialGradient id="SVGID_2_" cx="175.9878" cy="151.0666" r="153.5161" gradientUnits="userSpaceOnUse">
		<stop  offset="0" style="stop-color:#CCD62A"/>
		<stop  offset="1" style="stop-color:#D19D2A"/>
	</radialGradient>
	
		<circle fill="url(#SVGID_2_)" stroke="#000000" stroke-width="2.3618" stroke-miterlimit="10" cx="204.329" cy="203.026" r="153.516"/>
	<path opacity="0.14" fill="#FFFFFF" d="M148.873,204.139c13.079,0.306,32.342-2.734,44.746-10.877
		c12.404-8.143,12.98-24.512-3.461-28.191c-16.441-3.68-25.194-2.43-46.62-6.42c-21.426-3.99-40.586-17.815-54.61-27.448
		c-4.752-3.264-9.627-6.929-14.468-10.058c-7.474,11.829-13.373,24.748-17.41,38.467c12.891,6.148,26.084,11.77,34.375,14.105
		C124.07,182.913,135.794,203.834,148.873,204.139z"/>
	<path opacity="0.14" fill="#FFFFFF" d="M278.75,218.593c-32.487,8.922-23.189,11.73-51.065,9.557
		c-27.876-2.172-44.732,11.912-22.135,29.936c22.597,18.024,59.065,2.14,103.519,4.034c14.22,0.606,25.791,1.592,35.851,2.632
		c5.314-12.086,9.123-24.982,11.173-38.459C331.737,219.974,297.978,213.312,278.75,218.593z"/>
	<path opacity="0.14" fill="#FFFFFF" d="M168.568,80.119c11.129-7.307,12.727-21.229,1.063-26.672
		c-22.88,5.286-43.796,15.695-61.492,29.941c5.861,4.346,10.675,7.49,15.683,7.607C136.901,91.302,156.164,88.263,168.568,80.119z"
		/>
	<path opacity="0.14" fill="#FFFFFF" d="M248.365,107.664c-32.063-4.666-36.942,12.716-18.75,29.808
		c16.97,15.943,97.038,0.89,112.003-3.193c-6.002-11.963-13.521-23.031-22.306-32.955
		C296.284,106.328,273.559,111.331,248.365,107.664z"/>
	<path opacity="0.14" fill="#FFFFFF" d="M164.924,284.484c0,0-58.795-3.332-91.514-1.259c7.437,12.114,16.508,23.113,26.905,32.698
		c20.015,3.715,45.997,9.324,60.627,12.611C185.785,334.115,221.308,295.369,164.924,284.484z"/>
	<path opacity="0.14" fill="#FFFFFF" d="M246.899,350.557c15.405-4.437,29.814-11.22,42.818-19.94
		c-7.264-0.18-14.667-0.772-22.284-1.958C234.69,323.56,229.141,336.516,246.899,350.557z"/>
	<path opacity="0.14" fill="#FFFFFF" d="M333.339,197.621c4.523,3.449,13.464,5.462,24.492,6.513
		c0.003-0.37,0.014-0.737,0.014-1.108c0-9.421-0.853-18.642-2.478-27.594c-0.765-0.108-1.531-0.216-2.301-0.336
		C319.837,169.922,314.615,183.342,333.339,197.621z"/>
	<path opacity="0.14" fill="#FFFFFF" d="M94.933,216.441c-6.741-5.768-24.394-8.657-44.076-9.945
		c0.215,9.688,1.33,19.153,3.26,28.319c6.505,0.608,13.107,1.564,19.854,3.007C106.858,244.855,112.825,231.75,94.933,216.441z"/>
</g>
</svg>
